<?xml version="1.0" encoding="UTF-8" standalone="no"?>
<!-- Created with Inkscape (http://www.inkscape.org/) -->

<svg
   width="1000"
   height="1000"
   viewBox="0 0 264.58333 264.58333"
   version="1.1"
   id="svg1"
   inkscape:version="1.3.2 (091e20e, 2023-11-25, custom)"
   sodipodi:docname="logo_v1.0.svg"
   xml:space="preserve"
   inkscape:export-filename="logo_v1.0.png"
   inkscape:export-xdpi="98.304001"
   inkscape:export-ydpi="98.304001"
   xmlns:inkscape="http://www.inkscape.org/namespaces/inkscape"
   xmlns:sodipodi="http://sodipodi.sourceforge.net/DTD/sodipodi-0.dtd"
   xmlns="http://www.w3.org/2000/svg"
   xmlns:svg="http://www.w3.org/2000/svg"><sodipodi:namedview
     id="namedview1"
     pagecolor="#ffffff"
     bordercolor="#666666"
     borderopacity="1.0"
     inkscape:showpageshadow="2"
     inkscape:pageopacity="0.0"
     inkscape:pagecheckerboard="0"
     inkscape:deskcolor="#d1d1d1"
     inkscape:document-units="mm"
     inkscape:zoom="0.73008675"
     inkscape:cx="374.61302"
     inkscape:cy="466.38293"
     inkscape:window-width="1920"
     inkscape:window-height="1057"
     inkscape:window-x="-8"
     inkscape:window-y="-8"
     inkscape:window-maximized="1"
     inkscape:current-layer="layer1" /><defs
     id="defs1" /><g
     inkscape:label="Layer 1"
     inkscape:groupmode="layer"
     id="layer1"
     transform="translate(1.4860337,2.3080587)"><g
       id="g25"
       transform="rotate(-15.279648,135.3251,223.13105)"
       style="display:inline;fill:#ffab06;fill-opacity:1;stroke:#000000;stroke-width:1.5;stroke-dasharray:none;stroke-opacity:1"
       inkscape:label="pineapple_fruit"><path
         sodipodi:type="star"
         style="fill:#ffab06;fill-opacity:1;fill-rule:evenodd;stroke:#000000;stroke-width:3.14063;stroke-dasharray:none;stroke-opacity:1"
         id="path1"
         inkscape:flatsided="true"
         sodipodi:sides="3"
         sodipodi:cx="120.82542"
         sodipodi:cy="104.6563"
         sodipodi:r1="26.025764"
         sodipodi:r2="10.962934"
         sodipodi:arg1="1.5900669"
         sodipodi:arg2="2.6372644"
         inkscape:rounded="0.14"
         inkscape:randomized="0"
         d="m 120.32392,130.67724 c -6.30974,-0.12161 -25.042727,-34.062123 -21.782542,-39.465715 3.260182,-5.403592 42.020022,-4.656575 45.069582,0.868624 3.04955,5.5252 -16.9773,38.718691 -23.28704,38.597091 z"
         inkscape:transform-center-x="-0.0064771314"
         inkscape:transform-center-y="2.6026267"
         transform="matrix(0.4794093,0,0,0.47582112,89.196282,82.858788)" /><path
         style="fill:#ffab06;fill-opacity:1;stroke:#000000;stroke-width:1.5;stroke-linecap:butt;stroke-linejoin:miter;stroke-dasharray:none;stroke-opacity:1"
         d="m 120.73254,127.82374 c 5.70573,-1.90623 11.83619,-3.42449 17.89453,-5.33072 6.05833,-1.90623 -3.85369,-4.63286 -3.85369,-4.63286 0,0 -6.05725,0.48239 -9.29498,1.69096 -2.62363,0.97934 -2.46286,0.57423 -4.77435,4.27417 -2.31477,3.70518 -0.32412,3.99845 0.0285,3.99845 z"
         id="path3"
         sodipodi:nodetypes="cscssc" /><path
         style="fill:#ffab06;fill-opacity:1;stroke:#000000;stroke-width:1.5;stroke-linecap:butt;stroke-linejoin:miter;stroke-dasharray:none;stroke-opacity:1"
         d="m 153.47086,122.20759 c 6.48412,1.99505 9.55054,4.61699 16.34514,6.84044 6.7946,2.22345 -1.46408,-6.07745 -1.46408,-6.07745 0,0 -4.56441,-3.07647 -7.85975,-5.06517 -2.17305,-1.3114 -3.37352,-2.38366 -8.24305,-0.57938 -4.87642,1.80684 -2.13692,3.3908 -1.82646,3.61919 z"
         id="path3-5"
         sodipodi:nodetypes="cscsscc" /><path
         style="fill:#ffab06;fill-opacity:1;stroke:#000000;stroke-width:1.5;stroke-linecap:butt;stroke-linejoin:miter;stroke-dasharray:none;stroke-opacity:1"
         d="m 158.06427,147.01024 c -1.42725,-7.87318 1.21621,-14.01968 4.60298,-15.42203 2.58268,-1.0694 8.49366,2.28753 10.94383,4.18909 2.45016,1.90155 1.66544,5.60266 1.66544,5.60266 0,0 -1.27664,5.08355 -1.66836,6.57149 -0.18918,0.71862 -3.40296,4.95323 -5.64918,4.25918 -2.24623,-0.69404 -5.0151,-0.74716 -6.13786,-1.46635 -1.41171,-0.90428 -3.75685,-3.73404 -3.75685,-3.73404 z"
         id="path4"
         sodipodi:nodetypes="csscsssc" /><path
         style="fill:#ffab06;fill-opacity:1;stroke:#000000;stroke-width:1.5;stroke-linecap:butt;stroke-linejoin:miter;stroke-dasharray:none;stroke-opacity:1"
         d="m 116.52724,142.69192 c 0.30897,-6.51944 6.81187,-11.9477 6.81187,-11.9477 0,0 5.87141,-4.40705 8.46651,2.15036 2.59511,6.5574 4.38249,12.12508 1.262,12.78346 -3.12051,0.65836 -8.3269,3.26021 -10.06675,2.90647 -1.99494,-0.4056 -6.83488,-3.01709 -6.47363,-5.89259 z"
         id="path5"
         sodipodi:nodetypes="ccsssc"
         inkscape:transform-center-x="-0.28207457"
         inkscape:transform-center-y="-0.83937093" /><path
         style="fill:#ffab06;fill-opacity:1;stroke:#000000;stroke-width:1.5;stroke-linecap:butt;stroke-linejoin:miter;stroke-dasharray:none;stroke-opacity:1"
         d="m 134.37794,160.91564 c 9.52975,-14.99824 13.50911,-17.98056 20.182,-3.81786 6.6729,14.1627 9.51368,19.11183 1.05291,24.08214 -8.46077,4.97032 -10.46082,8.90197 -19.10098,0.76012 -8.64016,-8.14182 -11.36848,-8.57844 -2.13393,-21.0244 z"
         id="path6" /><path
         style="fill:#ffab06;fill-opacity:1;stroke:#000000;stroke-width:1.5;stroke-linecap:butt;stroke-linejoin:miter;stroke-dasharray:none;stroke-opacity:1"
         d="m 106.63542,173.12963 c -3.14503,-5.71904 -5.66411,-8.98047 -4.11519,-13.4495 1.54891,-4.46904 4.94931,-9.98905 11.7603,-8.16023 16.22399,4.3563 11.11287,9.82801 10.21303,14.63299 -0.50515,2.69738 -2.54348,9.03229 -8.39049,13.60126 -1.60409,1.25347 -8.27226,-3.98443 -9.46765,-6.62452 z"
         id="path5-2"
         sodipodi:nodetypes="czsssc"
         inkscape:transform-center-x="-1.390265"
         inkscape:transform-center-y="-0.7268438" /><path
         style="fill:#ffab06;fill-opacity:1;stroke:#000000;stroke-width:1.5;stroke-linecap:butt;stroke-linejoin:miter;stroke-dasharray:none;stroke-opacity:1"
         d="m 182.05266,175.95023 c 3.14501,-5.71904 3.62542,-7.88608 2.33432,-12.11599 -1.2911,-4.22991 -3.99544,-13.74211 -10.01267,-10.06424 -13.44652,8.21883 -10.71436,12.09443 -9.81453,16.89941 0.50516,2.69738 2.17826,7.33637 8.02526,11.90534 1.6041,1.25347 8.27224,-3.98443 9.46762,-6.62452 z"
         id="path5-2-7"
         sodipodi:nodetypes="czsssc"
         inkscape:transform-center-x="1.3902681"
         inkscape:transform-center-y="-0.7268438" /><path
         style="fill:#ffab06;fill-opacity:1;stroke:#000000;stroke-width:1.5;stroke-linecap:butt;stroke-linejoin:miter;stroke-dasharray:none;stroke-opacity:1"
         d="m 148.66982,202.18187 c -5.55156,-5.00282 9.82248,-17.26434 13.69619,-19.86983 3.87371,-2.60549 18.50285,10.52077 19.28061,15.84597 0.77775,5.32521 -7.29106,18.52268 -9.90364,19.03744 -1.30629,0.25739 -6.64843,-5.08466 -10.70937,-8.93951 -2.97351,-2.82261 -9.58801,-3.57266 -12.36379,-6.07407 z"
         id="path8"
         sodipodi:nodetypes="szzsss" /><path
         style="fill:#ffab06;fill-opacity:1;stroke:#000000;stroke-width:1.5;stroke-linecap:butt;stroke-linejoin:miter;stroke-dasharray:none;stroke-opacity:1"
         d="m 111.32357,145.34057 c 2.04537,-4.52254 1.28549,-5.43298 1.56715,-6.63566 0.28167,-1.20267 5.17707,-8.2093 2.78603,-8.74706 -2.39103,-0.53777 -8.23407,2.94163 -12.71133,7.8422 -4.477251,4.90053 -8.814984,12.33593 -8.18399,14.77944 0.630997,2.44352 6.22723,5.37015 7.6616,1.05567 1.43438,-4.31447 6.83516,-3.77204 8.88054,-8.29459 z"
         id="path2"
         sodipodi:nodetypes="zzzzzzz" /><path
         style="fill:#ffab06;fill-opacity:1;stroke:#000000;stroke-width:1.5;stroke-linecap:butt;stroke-linejoin:miter;stroke-dasharray:none;stroke-opacity:1"
         d="m 175.12942,130.37503 c -0.74363,0.69337 3.44944,5.43561 4.89527,9.77019 1.44584,4.33458 -1.0866,7.55406 -0.27196,8.68457 0.81464,1.13051 1.74956,2.28175 4.89751,7.23823 3.14794,4.95649 3.16708,5.02244 3.26415,7.41835 0.0971,2.39591 0.0389,13.09265 4.35008,13.03528 4.31118,-0.0574 5.26521,-10.37012 5.70955,-14.30313 0.44434,-3.93302 0.39513,-7.95401 -1.3598,-12.12223 -1.75493,-4.16822 -3.66891,-10.67422 -7.61487,-13.75058 -3.94595,-3.07636 -13.1263,-6.66405 -13.86993,-5.97068 z"
         id="path14"
         sodipodi:nodetypes="zzzzzzzzzz" /><g
         id="g2"
         inkscape:label="full"
         style="display:none;opacity:1;fill:#ffab06;fill-opacity:1;stroke:#000000;stroke-width:1.5;stroke-dasharray:none;stroke-opacity:1"
         transform="translate(-1.1824958e-6)"><path
           style="display:inline;opacity:1;fill:#ffab06;fill-opacity:1;stroke:#000000;stroke-width:1.5;stroke-linecap:butt;stroke-linejoin:miter;stroke-dasharray:none;stroke-opacity:1"
           d="m 122.43507,180.63781 c -3.85155,0.0828 -10.30113,4.95156 -12.95243,11.6063 -2.6513,6.65475 -4.08955,8.46877 0.31464,14.70102 4.40419,6.23226 12.60604,11.56839 16.09604,10.62792 3.49001,-0.94047 5.06259,-6.19537 6.58158,-8.61935 1.51899,-2.42399 8.04537,-6.91849 8.09211,-11.84184 0.0468,-4.92335 -14.28039,-16.55684 -18.13194,-16.47405 z"
           id="path7"
           sodipodi:nodetypes="zzzzzzz"
           inkscape:label="path7_unused" /><path
           style="display:inline;opacity:1;fill:#ffab06;fill-opacity:1;stroke:#000000;stroke-width:1.5;stroke-linecap:butt;stroke-linejoin:miter;stroke-dasharray:none;stroke-opacity:1"
           d="m 144.9683,205.75281 c 3.23729,-0.0899 12.96587,7.02251 14.76336,9.7457 1.79749,2.72319 5.653,9.10609 5.33248,16.21625 -0.32053,7.11017 -15.37144,21.31211 -18.18951,21.14683 -2.81807,-0.16528 -8.84621,-9.64217 -11.62647,-12.09572 -2.78025,-2.45356 -8.97087,-5.55727 -9.74456,-7.7377 -0.77369,-2.18043 4.84072,-14.16957 7.14147,-16.82611 2.30076,-2.65654 9.08593,-10.35935 12.32323,-10.44925 z"
           id="path9"
           sodipodi:nodetypes="zzzzzzzz"
           inkscape:label="path9_unused" /><path
           style="display:inline;opacity:1;fill:#ffab06;fill-opacity:1;stroke:#000000;stroke-width:1.5;stroke-linecap:butt;stroke-linejoin:miter;stroke-dasharray:none;stroke-opacity:1"
           d="m 159.40575,250.26722 c -2.46408,-2.18262 12.72721,-19.30444 15.73042,-22.57142 3.00322,-3.26698 6.49623,-14.29096 9.6942,-14.54059 3.19797,-0.24964 5.54401,10.5231 5.69011,14.6864 0.14609,4.1633 0.34708,9.17808 -7.47025,16.60668 -7.81734,7.42861 -21.18039,8.00155 -23.64448,5.81893 z"
           id="path10"
           sodipodi:nodetypes="zzzzzz"
           inkscape:label="path10_unused" /><path
           style="display:inline;opacity:1;fill:#ffab06;fill-opacity:1;stroke:#000000;stroke-width:1.5;stroke-linecap:butt;stroke-linejoin:miter;stroke-dasharray:none;stroke-opacity:1"
           d="m 194.21596,222.53797 c -2.49912,-3.5751 -1.77642,-6.70387 -2.92468,-8.86676 -1.14825,-2.1629 -3.4058,-2.39615 -4.37286,-5.63277 -0.96706,-3.23662 2.19477,-8.46938 2.07176,-12.55234 -0.12301,-4.08296 -2.04548,-8.86254 -2.61607,-11.49275 -0.57059,-2.63021 -3.26064,-5.1524 -0.27888,-6.57558 2.98176,-1.42318 9.1711,7.00007 11.0624,11.12965 1.89131,4.12957 1.30884,9.84046 1.21956,14.74372 -0.0893,4.90326 -1.66211,22.82193 -4.16123,19.24683 z"
           id="path11"
           sodipodi:nodetypes="zzzzzzzzz"
           inkscape:label="path11_unused" /><path
           style="display:inline;opacity:1;fill:#ffab06;fill-opacity:1;stroke:#000000;stroke-width:1.5;stroke-linecap:butt;stroke-linejoin:miter;stroke-dasharray:none;stroke-opacity:1"
           d="m 93.529609,163.14262 c 0.970794,-1.97339 6.939011,-9.08424 6.523201,0.7248 -0.415817,9.80904 6.10676,15.13818 6.34203,19.20719 0.23526,4.06901 -4.89258,13.33684 -4.34883,17.21399 0.54375,3.87716 4.45291,9.85023 3.44282,11.2344 -1.01009,1.38417 -4.50185,1.89384 -9.060019,-3.2616 -4.558174,-5.15544 -7.196764,-8.28496 -7.429201,-19.93199 -0.232438,-11.64703 3.559207,-23.2134 4.529999,-25.18679 z"
           id="path12"
           sodipodi:nodetypes="zzzzzzzz"
           inkscape:label="path12_unused" /><path
           style="display:inline;opacity:1;fill:#ffab06;fill-opacity:1;stroke:#000000;stroke-width:1.5;stroke-linecap:butt;stroke-linejoin:miter;stroke-dasharray:none;stroke-opacity:1"
           d="m 106.57604,215.5094 c 1.64728,-0.3141 3.81718,-0.47251 5.79843,1.4496 1.98124,1.92211 5.55298,4.93295 4.8924,8.87879 -0.66058,3.94585 8.56215,13.11436 11.41559,14.496 3.0958,1.49899 5.84305,4.44447 7.4292,5.97959 1.58615,1.53512 6.08453,6.25275 0,6.7044 -6.08453,0.45165 -16.93532,-4.70872 -23.37479,-9.06 -6.43951,-4.35128 -12.36078,-7.93808 -13.227667,-23.19359 -0.330917,-5.82351 5.739187,-5.00164 7.066837,-5.25479 z"
           id="path13"
           sodipodi:nodetypes="zzzzzzzzz"
           inkscape:label="path13_unused" /></g><g
         id="g1"
         inkscape:label="cutout"
         style="display:inline"><path
           style="fill:#ffab06;fill-opacity:1;stroke:#000000;stroke-width:1.5;stroke-linecap:butt;stroke-linejoin:miter;stroke-dasharray:none;stroke-opacity:1"
           d="m 83.336388,171.41365 c -1.545813,-1.25553 -1.554821,-1.94101 -4.101434,6.33416 -2.546613,8.27517 3.268733,30.57952 4.710834,30.77427 1.442101,0.19475 14.540181,2.98564 13.441483,0.25579 -1.098698,-2.72985 -0.622679,-12.19384 -0.245556,-15.04504 0.377124,-2.85119 -5.535831,-6.57743 -8.016114,-10.04023 -2.480284,-3.4628 -4.2434,-11.02343 -5.789213,-12.27895 z"
           id="path120"
           sodipodi:nodetypes="zzzzzzz"
           transform="rotate(15.279648,135.32509,223.13105)" /><path
           style="fill:#ffab06;fill-opacity:1;stroke:#000000;stroke-width:1.5;stroke-linecap:butt;stroke-linejoin:miter;stroke-dasharray:none;stroke-opacity:1"
           d="m 112.1566,185.77246 c -6.34265,1.3548 -6.45534,5.55053 -8.11691,9.23789 -1.66157,3.68736 -3.24677,12.64278 -2.69063,14.13103 0.55615,1.48825 5.37901,2.50973 9.02769,4.095 3.64868,1.58527 8.91723,2.33256 11.70786,2.82164 2.79063,0.48908 3.7533,2.20408 5.26478,1.02815 1.51148,-1.17593 0.94295,-2.95829 2.16671,-6.22919 1.22376,-3.2709 4.59055,-6.48816 5.14413,-12.5638 0.55357,-6.07563 -16.16098,-13.87552 -22.50363,-12.52072 z"
           id="path121"
           sodipodi:nodetypes="zzzzzzzzz"
           transform="rotate(15.279648,135.32509,223.13105)" /><path
           style="fill:#ffab06;fill-opacity:1;stroke:#000000;stroke-width:1.5;stroke-linecap:butt;stroke-linejoin:miter;stroke-dasharray:none;stroke-opacity:1"
           d="m 140.62578,203.77933 c -1.5344,1.16444 -10.85648,10.21604 -7.1723,10.61575 3.68418,0.39971 27.30599,0.035 31.67113,-0.33727 4.36513,-0.3723 -8.04437,-6.51262 -9.25433,-7.09493 -1.20997,-0.58232 -13.7101,-4.348 -15.2445,-3.18355 z"
           id="path122"
           sodipodi:nodetypes="zzzzz"
           transform="rotate(15.279648,135.32509,223.13105)" /><path
           style="fill:#ffab06;fill-opacity:1;stroke:#000000;stroke-width:1.5;stroke-linecap:butt;stroke-linejoin:miter;stroke-dasharray:none;stroke-opacity:1"
           d="m 178.62453,199.76485 c -0.68789,1.74989 -3.76408,10.26034 -4.07232,13.27522 -0.30823,3.01488 10.43877,0.62931 11.59856,-2.64839 1.15979,-3.27771 -6.83835,-12.37672 -7.52624,-10.62683 z"
           id="path123"
           sodipodi:nodetypes="zzzz"
           transform="rotate(15.279648,135.32509,223.13105)" /><path
           style="fill:#ffab06;fill-opacity:1;stroke:#000000;stroke-width:1.5;stroke-linecap:butt;stroke-linejoin:miter;stroke-dasharray:none;stroke-opacity:1"
           d="m 172.1961,168.86079 c 1.54138,4.64667 6.12578,9.29195 7.29946,13.08619 1.17368,3.79423 -0.32693,11.83376 0.8969,13.58154 1.22383,1.74778 6.72846,5.94392 7.97983,7.58763 1.25136,1.64371 2.51327,0.67378 3.84733,-3.99208 1.33407,-4.66587 -2.99251,-18.86064 -4.78014,-24.60849 -1.78763,-5.74786 -16.78477,-10.30146 -15.24338,-5.65479 z"
           id="path124"
           transform="rotate(15.279648,135.32509,223.13105)"
           sodipodi:nodetypes="zzzzzzz" /><path
           style="fill:#ffab06;fill-opacity:1;stroke:#000000;stroke-width:1.5;stroke-linecap:butt;stroke-linejoin:miter;stroke-dasharray:none;stroke-opacity:1"
           d="m 113.90552,247.92709 c 2.15106,1.6452 6.11032,3.70763 11.12634,4.5653 5.01602,0.85767 22.87724,-0.74817 18.13283,-1.94469 -4.74441,-1.19652 -31.41023,-4.26581 -29.25917,-2.62061 z"
           id="path125"
           sodipodi:nodetypes="zzzz"
           transform="rotate(15.279648,135.32509,223.13105)" /></g></g><g
       id="g26"
       style="display:inline;fill:#2f6203;fill-opacity:1;stroke:#000000;stroke-width:1.5;stroke-dasharray:none;stroke-opacity:1"
       transform="rotate(-15.279648,135.3251,223.13105)"
       inkscape:label="pineapple_green"><path
         style="fill:#2f6203;fill-opacity:1;stroke:#000000;stroke-width:1.5;stroke-linecap:butt;stroke-linejoin:miter;stroke-dasharray:none;stroke-opacity:1"
         d="m 130.13206,113.49369 c -13.07775,-0.40482 -24.29362,7.76767 -33.159656,17.39529 -8.866035,9.62762 1.776305,-21.0969 9.966036,-24.82453 8.18973,-3.72763 36.27138,7.83406 23.19362,7.42924 z"
         id="path15"
         sodipodi:nodetypes="zzzz" /><path
         style="fill:#2f6203;fill-opacity:1;stroke:#000000;stroke-width:1.5;stroke-linecap:butt;stroke-linejoin:miter;stroke-dasharray:none;stroke-opacity:1"
         d="m 165.64725,116.57409 c 0.0863,-5.62213 5.55607,-14.17494 19.56959,-12.32165 14.01352,1.85329 29.60619,38.02985 22.10639,32.25375 -7.49979,-5.7761 -41.76227,-14.30997 -41.67598,-19.9321 z"
         id="path16"
         sodipodi:nodetypes="zzzz" /><path
         style="fill:#2f6203;fill-opacity:1;stroke:#000000;stroke-width:1.5;stroke-linecap:butt;stroke-linejoin:miter;stroke-dasharray:none;stroke-opacity:1"
         d="m 82.838813,114.0373 c 1.049969,8.75294 5.806656,-9.89095 17.938797,-15.583267 12.13213,-5.692316 14.97784,-1.861697 25.18685,4.348807 10.20901,6.2105 -14.33404,-24.191814 -25.54926,-21.019201 C 89.199989,84.956253 81.788844,105.28436 82.838813,114.0373 Z"
         id="path17"
         sodipodi:nodetypes="zzzzz" /><path
         style="fill:#2f6203;fill-opacity:1;stroke:#000000;stroke-width:1.5;stroke-linecap:butt;stroke-linejoin:miter;stroke-dasharray:none;stroke-opacity:1"
         d="m 89.724409,72.723642 c 12.014381,2.53848 26.298141,6.953149 33.703251,13.771194 7.40511,6.818045 6.76937,16.765764 10.872,21.381634 4.10263,4.61587 6.80023,7.5472 10.872,8.51644 4.07177,0.96924 8.00889,-3.34106 10.69079,-3.26161 2.6819,0.0795 3.55786,2.60762 6.1608,1e-5 2.24957,-2.25361 -4.77689,-22.494356 -10.3284,-28.086073 C 146.57319,79.88648 135.57149,72.905754 124.87726,70.549243 114.18303,68.192732 77.71003,70.185162 89.724409,72.723642 Z"
         id="path18"
         sodipodi:nodetypes="zzzzzzzzz" /><path
         style="display:none;opacity:0.323755;fill:#2f6203;fill-opacity:1;stroke:#000000;stroke-width:1.5;stroke-linecap:butt;stroke-linejoin:miter;stroke-dasharray:none;stroke-opacity:1"
         d="m 162.02325,97.004433 c 2.48205,4.038797 2.25845,7.109707 3.0804,10.690827 0.82195,3.58112 9.74195,-6.00054 14.85839,-9.060029 5.11644,-3.059484 14.71477,-3.029353 20.47559,-0.362398 5.76082,2.666957 11.0939,7.246467 13.4088,12.865267 2.3149,5.61881 5.71859,13.54636 6.7044,9.60366 0.98581,-3.94269 0.22014,-7.9528 -0.3624,-15.22091 -0.58254,-7.268114 -5.47652,-13.916408 -9.4224,-19.207214 -3.94588,-5.290805 -6.23999,-7.526284 -15.22079,-9.059996 -8.9808,-1.533712 -16.91287,-0.828787 -22.83119,2.3556 -5.91832,3.184388 -13.17284,13.356393 -10.6908,17.395193 z"
         id="path19"
         sodipodi:nodetypes="zzzzzzzzzzz" /><path
         style="fill:#2f6203;fill-opacity:1;stroke:#000000;stroke-width:1.5;stroke-linecap:butt;stroke-linejoin:miter;stroke-dasharray:none;stroke-opacity:1"
         d="m 154.41285,80.152841 c 2.20459,6.851023 3.46283,10.825732 7.4292,6.160794 3.96637,-4.664938 4.3635,-11.96076 7.7916,-16.851591 3.4281,-4.890832 32.65967,-16.19441 21.01919,-15.945593 -11.64048,0.248816 -18.14623,2.612028 -26.09279,6.885597 -7.94656,4.273568 -12.3518,12.89977 -10.1472,19.750793 z"
         id="path20"
         sodipodi:nodetypes="zzzzzz" /><path
         style="fill:#2f6203;fill-opacity:1;stroke:#000000;stroke-width:1.5;stroke-linecap:butt;stroke-linejoin:miter;stroke-dasharray:none;stroke-opacity:1"
         d="m 150.56449,80.392303 c 1.99091,1.575537 0.62686,-3.851952 1.44426,-8.236597 2.87332,-12.869774 1.29443,-22.660694 -5.94318,-33.882555 -11.32087,-16.537809 -31.8261,-23.871999 -32.05547,-21.230569 -0.31832,3.665925 4.42026,12.816877 4.69833,18.893181 0.21162,4.624229 3.69281,25.860045 5.81881,28.775659 5.10046,6.994811 12.15959,6.71286 14.94541,8.562573 2.35653,1.564673 9.10093,5.542771 11.09184,7.118308 z"
         id="path21"
         sodipodi:nodetypes="zzzzzzzz" /><path
         style="fill:#2f6203;fill-opacity:1;stroke:#000000;stroke-width:1.5;stroke-linecap:butt;stroke-linejoin:miter;stroke-dasharray:none;stroke-opacity:1"
         d="m 72.041063,37.76285 c 12.734976,4.580776 22.306244,11.327125 28.411047,15.492135 6.1048,4.16501 8.44256,9.811601 12.97576,12.03867 4.5332,2.22707 5.51918,2.566339 8.6816,2.83702 3.16242,0.27068 -1.56795,-3.401565 -3.58224,-6.481441 -2.51273,-5.214409 -4.90758,-12.223495 -5.20017,-16.814254 -0.29259,-4.59076 1.94401,-7.039927 -0.24025,-10.643704 -2.18427,-3.603778 -53.780723,-1.009202 -41.045747,3.571574 z"
         id="path22"
         sodipodi:nodetypes="zzzzzzzz" /><path
         style="fill:#2f6203;fill-opacity:1;stroke:#000000;stroke-width:1.5;stroke-linecap:butt;stroke-linejoin:miter;stroke-dasharray:none;stroke-opacity:1"
         d="m 150.28468,41.304248 c 5.09248,11.972827 5.91365,16.01867 7.17515,19.731664 1.2615,3.712994 8.02984,-7.150531 12.30026,-16.6566 4.27042,-9.506069 2.32298,-21.624133 1.73695,-29.930375 -0.47227,-6.6937877 -26.30484,14.882484 -21.21236,26.855311 z"
         id="path23"
         sodipodi:nodetypes="zzzzz" /><path
         style="fill:#2f6203;fill-opacity:1;stroke:#000000;stroke-width:1.5;stroke-linecap:butt;stroke-linejoin:miter;stroke-dasharray:none;stroke-opacity:1"
         d="m 137.94046,24.691614 c 1.11934,3.224866 6.69404,4.365425 8.14826,7.17678 1.45423,2.811355 0.91274,-2.319941 4.07968,-6.660302 3.16694,-4.34036 6.18854,-6.045157 5.69187,-7.745053 -1.70403,-5.832198 -12.90556,-18.25022327 -15.74582,-20.2777123 -2.35837,-1.683498 -3.40749,23.9525173 -2.17399,27.5062873 z"
         id="path24"
         sodipodi:nodetypes="zzzzzz" /><path
         style="fill:#2f6203;fill-opacity:1;stroke:#000000;stroke-width:1.5;stroke-linecap:butt;stroke-linejoin:miter;stroke-dasharray:none;stroke-opacity:1"
         d="m 169.21649,54.916874 c 2.68987,-0.416183 6.27045,-3.698007 9.70662,-4.905276 3.43617,-1.207269 9.34171,-1.056376 13.82712,0.859823 4.48542,1.916199 -5.25407,-8.481634 -8.37604,-9.023573 -3.12197,-0.541938 -8.0194,0.03271 -11.34275,3.186549 -3.32335,3.153842 -3.81495,9.882477 -3.81495,9.882477 z"
         id="path25"
         sodipodi:nodetypes="czzzzc" /><path
         style="fill:#2f6203;fill-opacity:1;stroke:#000000;stroke-width:1.5;stroke-linecap:butt;stroke-linejoin:miter;stroke-dasharray:none;stroke-opacity:1"
         d="m 125.93395,91.687161 c 1.89309,1.716279 8.22838,14.073359 8.96939,11.959199 0.54281,-1.54868 7.7806,-11.516831 9.50795,-13.135334 3.79165,-3.55272 10.61814,-4.168732 10.24285,-6.615461 -0.7593,-4.950367 -8.2141,-11.011491 -12.0498,-8.425796 -3.8357,2.585695 -6.41828,11.18449 -9.78479,11.596794 -3.36651,0.412305 -3.9057,-1.590617 -4.8018,-0.905999 -0.8961,0.684618 -3.97689,3.810318 -2.0838,5.526597 z"
         id="path99"
         sodipodi:nodetypes="zssszzzz"
         transform="rotate(15.279648,135.32509,223.13105)" /><path
         style="fill:#2f6203;fill-opacity:1;stroke:#000000;stroke-width:1.5;stroke-linecap:butt;stroke-linejoin:miter;stroke-dasharray:none;stroke-opacity:1"
         d="m 151.30194,66.953374 c 1.18928,0.876197 6.06752,2.00032 6.61379,3.170996 0.54627,1.170676 1.45923,-2.961189 0.0906,-4.167597 -1.36863,-1.206408 -7.89367,0.120404 -6.70439,0.996601 z"
         id="path100"
         sodipodi:nodetypes="zzzz"
         transform="rotate(15.279648,135.32509,223.13105)" /><path
         style="fill:#2f6203;fill-opacity:1;stroke:#000000;stroke-width:1.5;stroke-linecap:butt;stroke-linejoin:miter;stroke-dasharray:none;stroke-opacity:1"
         d="m 183.81633,100.26762 c 0.6588,0.49416 3.16039,5.20858 4.72125,5.11568 1.56086,-0.0929 5.97636,0.93519 6.2313,-1.07165 0.25494,-2.00684 -0.64366,-6.196401 -2.82226,-5.060724 -2.1786,1.135674 -8.78909,0.522539 -8.13029,1.016694 z"
         id="path101"
         sodipodi:nodetypes="zzzzz"
         transform="rotate(15.279648,135.32509,223.13105)" /></g><g
       id="g28"
       style="display:inline;fill:#01a33e;fill-opacity:1;stroke:#000000;stroke-width:3.14421;stroke-dasharray:none;stroke-opacity:1"
       transform="matrix(0.45690569,0.12449048,-0.12634015,0.46369432,194.19004,-13.51037)"
       inkscape:label="snake_head"><path
         style="fill:#ffff03;fill-opacity:1;stroke:#000000;stroke-width:3.14421;stroke-linecap:butt;stroke-linejoin:miter;stroke-dasharray:none;stroke-opacity:1"
         d="m 77.487887,110.01489 c -0.76362,-3.99984 -2.39353,-7.00584 -4.04946,-8.28415 -1.65593,-1.27831 -7.69379,1.13298 -9.65622,1.93471 -3.51938,1.43781 3.03053,10.8352 -0.79334,19.06111 -1.11089,2.38974 -3.39305,-15.76061 -6.03968,-13.17889 -5.83206,5.68905 -10.03554,21.16057 -5.29463,24.21722 4.74091,3.05665 28.88781,-7.75064 25.83333,-23.75 z"
         id="path3-6"
         sodipodi:nodetypes="ssssszs" /><path
         style="fill:#01a33e;fill-opacity:1;stroke:#000000;stroke-width:3.14421;stroke-linecap:butt;stroke-linejoin:miter;stroke-dasharray:none;stroke-opacity:1"
         d="m 49.154557,104.59823 c -4.570644,6.23111 -5.14527,20.73866 -10.41666,23.75 -13.103546,7.48552 -14.667374,-10.39599 -11.66667,-22.91667 1.51754,-6.332069 3.94112,-11.310102 8.75,-15.000001 6.024923,-4.62298 29.967532,-12.497723 41.738514,-8.40942 11.770981,4.088303 -23.83454,16.344984 -28.405184,22.576091 z"
         id="path4-22"
         sodipodi:nodetypes="zzzzzz" /><path
         style="fill:#01a33e;fill-opacity:1;stroke:#000000;stroke-width:3.14421;stroke-linecap:butt;stroke-linejoin:miter;stroke-dasharray:none;stroke-opacity:1"
         d="m 16.078833,138.94045 c -7.4680191,3.98084 -7.805532,9.03085 -8.6466152,13.36321 -0.8410832,4.33236 -1.0038961,8.13592 2.2982925,11.83854 3.3021887,3.70262 16.2150317,4.52893 21.1900027,1.29394 4.974971,-3.235 11.415976,-19.4391 9.737552,-25.68764 -1.678424,-6.24854 -17.111212,-4.78889 -24.579232,-0.80805 z"
         id="path5-1"
         sodipodi:nodetypes="zzzzzz" /><path
         style="fill:#01a33e;fill-opacity:1;stroke:#000000;stroke-width:3.14421;stroke-linecap:butt;stroke-linejoin:miter;stroke-dasharray:none;stroke-opacity:1"
         d="m 4.154559,139.18156 c -4.241232,-3.94126 -24.818495,-5.20083 -29.583332,2.08333 -4.764837,7.28417 -8.893772,24.05376 2.083332,26.66667 10.977105,2.61291 22.220904,-0.27995 23.75,-7.08333 0.764547,-3.40169 -0.675145,-6.37471 0.08054,-10.65663 0.755684,-4.28192 5.790077,-9.03941 3.66946,-11.01004 z"
         id="path6-4"
         sodipodi:nodetypes="szzsss" /><path
         style="fill:#01a33e;fill-opacity:1;stroke:#000000;stroke-width:3.14421;stroke-linecap:butt;stroke-linejoin:miter;stroke-dasharray:none;stroke-opacity:1"
         d="m 32.951516,81.49161 c -8.332408,8.831898 -14.953729,17.847335 -17.963629,24.77328 -3.0099,6.92595 -0.616628,14.23751 -7.0383176,18.98075 -4.984175,3.68145 -14.2062889,6.6414 -14.3618031,0.96039 C -6.5677479,120.52502 -8.118264,104.24737 3.335984,90.498869 14.790232,76.750368 41.283923,72.659711 32.951516,81.49161 Z"
         id="path7-8"
         sodipodi:nodetypes="zzzzzz" /><path
         style="fill:#ffffff;fill-opacity:1;stroke:#000000;stroke-width:3.14421;stroke-linecap:butt;stroke-linejoin:miter;stroke-dasharray:none;stroke-opacity:1"
         d="m -24.744472,172.80075 c 1.832084,-2.92734 10.604464,1.08341 16.3312134,0.1339 5.7267496,-0.94951 5.3308938,19.87643 5.9563808,28.39649 0.625487,8.52006 -24.1196782,-25.60305 -22.2875942,-28.53039 z"
         id="path8-2"
         sodipodi:nodetypes="zzzz" /><path
         style="fill:#ffffff;fill-opacity:1;stroke:#000000;stroke-width:3.14421;stroke-linecap:butt;stroke-linejoin:miter;stroke-dasharray:none;stroke-opacity:1"
         d="m 5.821227,170.84823 c -1.18219,4.72459 11.21887,35.4734 12.08333,27.08333 0.86446,-8.39007 8.81116,-22.98809 3.75,-24.58333 -5.06116,-1.59524 -14.65114,-7.22458 -15.83333,-2.5 z"
         id="path9-0"
         sodipodi:nodetypes="zzzz" /><path
         style="display:none;opacity:0.549808;fill:#01a33e;fill-opacity:1;stroke:#000000;stroke-width:3.14421;stroke-linecap:butt;stroke-linejoin:miter;stroke-dasharray:none;stroke-opacity:1"
         d="m 34.154557,176.68156 c -5.10229,5.26006 -3.34283,17.16414 -5.83333,23.33334 -2.4905,6.1692 -6.86993,9.49498 -7.91667,13.74999 -1.04674,4.25501 -1.66667,9.58333 0.41667,10.41667 2.08334,0.83334 7.49999,5 12.08333,5.41667 4.58334,0.41667 17.08333,-2.91667 18.75,-3.75 1.66667,-0.83333 8.33334,-5.41667 9.58334,-7.08334 1.25,-1.66667 4.24287,-5.87768 5.83333,-11.66666 1.59046,-5.78898 1.6868,-17.34552 1.66666,-22.91667 -0.0201,-5.57115 -0.55212,-7.29181 -0.83333,-10.41666 -0.28121,-3.12485 2.50907,-6.35268 -0.83333,-8.33334 -3.3424,-1.98066 -8.27037,3.90529 -13.75,5.83333 -5.47963,1.92804 -14.06438,0.15661 -19.16667,5.41667 z"
         id="path10-2"
         sodipodi:nodetypes="zzzzzzzzzzzzz"
         inkscape:label="path10-2_unused" /><path
         style="fill:#01a33e;fill-opacity:1;stroke:#000000;stroke-width:3.14421;stroke-linecap:butt;stroke-linejoin:miter;stroke-dasharray:none;stroke-opacity:1"
         d="m 79.571227,192.09823 c 6.6184,-17.21197 8.39593,-21.71551 13.54167,-29.16666 5.14573,-7.45116 12.591233,-10.03217 15.208333,-16.25001 3.07899,-7.31523 1.74866,-28.74994 -2.91667,-31.25 -3.23847,-1.73544 -19.791673,3.41147 -21.458333,8.95833 -1.66667,5.54686 0.88885,16.71811 -1.875,25.62501 -1.25,3.33333 -7.52239,10.2925 -8.75,17.08333 -1.22761,6.79082 -0.3684,42.21197 6.25,25 z"
         id="path11-17"
         sodipodi:nodetypes="zzzzzzzz" /><path
         style="fill:#01a33e;fill-opacity:1;stroke:#000000;stroke-width:3.14421;stroke-linecap:butt;stroke-linejoin:miter;stroke-dasharray:none;stroke-opacity:1"
         d="m 42.670625,73.467801 c 5.628017,4.868254 12.428972,-3.047494 20.98761,-3.12878 8.558638,-0.08129 16.558175,4.587608 22.138722,6.676054 17.978893,14.0113 30.969113,1.655124 10.899843,-10.867397 -20.069269,-12.522521 -61.789279,0.742874 -54.026175,7.320123 z"
         id="path12-0"
         sodipodi:nodetypes="zzzzz" /><path
         style="display:none;opacity:0.187739;fill:#01a33e;fill-opacity:1;stroke:#000000;stroke-width:3.14421;stroke-linecap:butt;stroke-linejoin:miter;stroke-dasharray:none;stroke-opacity:1"
         d="m 121.65456,90.431559 c 0.83333,0.208333 15.79102,11.272131 23.75,21.666661 7.95898,10.39454 17.26895,25.68137 21.25,41.25001 3.98105,15.56863 1.592,36.02784 1.25,50 -0.342,13.97216 -0.93807,24.43281 -2.5,33.75 -1.56193,9.31719 -4.01075,17.44093 -5.83333,22.08333 -1.82258,4.6424 1.14453,-0.42264 -3.33334,6.25 -19.0025,32.18978 -53.5379,53.02963 -84.315276,74.12499 -8.849319,-24.7339 -22.953733,-37.74661 -37.838235,-51.01575 5.090029,-17.02987 25.825864,3.42497 27.676984,-7.45437 1.851119,-10.87935 -15.423766,-20.07377 -17.469002,-25.87757 -2.045236,-5.80379 57.140329,-22.53195 61.945529,-27.2773 4.8052,-4.74535 4.19893,-3.24659 5.98859,-8.82673 1.78966,-5.58014 3.07988,-7.25125 2.34474,-21.17327 -0.73513,-13.92202 -10.27718,-13.87293 -12.49999,-36.25 12.68378,-10.91321 17.12645,-19.30389 19.16666,-25.83334 2.04021,-6.52944 -3.74999,-17.08333 -4.16666,-19.16666 -0.41667,-2.08333 5.41666,-11.66667 4.58333,-13.33333 -0.83333,-1.66667 -6.61927,-9.879966 -5,-12.500005 1.61927,-2.620039 4.16667,-0.624999 5,-0.416666 z"
         id="path13-2"
         sodipodi:nodetypes="zzzzzzzcczzzzzczzzzz"
         inkscape:label="path13-2_unused" /><path
         style="fill:#c00001;fill-opacity:1;stroke:#000000;stroke-width:3.14421;stroke-linecap:butt;stroke-linejoin:miter;stroke-dasharray:none;stroke-opacity:1"
         d="m 53.045865,175.16818 c -1.44721,2.46461 -5.464544,11.14334 -9.335026,19.50312 -3.961539,8.55646 -15.031537,24.06002 -18.992657,26.35396 -7.92224,4.58788 -17.1803954,5.88157 -21.4056184,2.42991 -5.4042915,-0.87353 -27.0948526,-25.77192 -37.9080046,-31.35694 -10.813152,-5.58502 -26.251266,2.5058 -29.583332,4.79167 -10.015296,6.87071 -16.786037,19.8945 -15.416667,27.70833 1.36937,7.81383 3.173124,-6.3334 7.5,-12.91667 4.326876,-6.58327 -5.266291,26.07717 0,15.83334 5.266291,-10.24383 3.688891,-10.7375 4.583333,-14.16667 1.706424,-14.92699 26.349593,-21.81096 40.405824,-6.4203 4.111615,4.50195 24.2009813,23.98823 32.8076223,25.60212 8.6066417,1.6139 17.2466247,-0.7872 23.9583247,-7.29167 1.81837,-1.76223 15.414835,-17.12762 20.76276,-27.65336 5.050593,-9.94054 13.010192,-28.71889 12.403212,-30.38226 -1.21396,-3.32674 -6.885351,3.03621 -9.779771,7.96542 z"
         id="path14-7"
         sodipodi:nodetypes="sscczzzzzzzcssss" /><path
         style="fill:#01a33e;fill-opacity:1;stroke:#000000;stroke-width:1.5;stroke-linecap:butt;stroke-linejoin:miter;stroke-dasharray:none;stroke-opacity:1"
         d="m 199.04812,57.893376 c -1.39341,0.5436 -4.94167,4.800762 -5.0736,7.338596 -0.13193,2.537835 10.12924,2.931065 14.31479,-0.1812 4.18555,-3.112265 5.64868,-10.14444 3.2616,-8.335195 -2.38708,1.809246 -11.10938,0.634199 -12.50279,1.177799 z"
         id="path28"
         sodipodi:nodetypes="zzzzz"
         transform="matrix(2.0373865,-0.54698798,0.55511508,2.0075585,-388.14034,133.34247)" /><path
         style="fill:#01a33e;fill-opacity:1;stroke:#000000;stroke-width:1.5;stroke-linecap:butt;stroke-linejoin:miter;stroke-dasharray:none;stroke-opacity:1"
         d="m 218.37111,40.016762 c 1.62067,1.521507 2.1253,6.654255 0.8355,9.606815 -1.2898,2.95256 4.37929,-0.860762 6.76069,-0.75267 2.3814,0.108092 4.2529,3.850473 5.61532,2.132318 1.36241,-1.718155 0.79672,-6.958437 -1.2593,-9.149814 -2.05602,-2.191377 -13.57288,-3.358156 -11.95221,-1.836649 z"
         id="path29"
         sodipodi:nodetypes="zzzzzz"
         transform="matrix(2.0373865,-0.54698798,0.55511508,2.0075585,-388.14034,133.34247)" /><path
         style="fill:#01a33e;fill-opacity:1;stroke:#000000;stroke-width:1.5;stroke-linecap:butt;stroke-linejoin:miter;stroke-dasharray:none;stroke-opacity:1"
         d="m 187.45082,71.879639 c 3.57838,-1.780725 3.26049,-0.692955 5.38136,-2e-6 2.12087,0.692953 -6.69976,9.953472 -9.60958,12.556517 -2.90981,2.603045 -3.09338,4.082249 -5.38136,5.253235 -2.28798,1.170986 -3.50604,-1.875221 -1.53753,-3.459448 1.96851,-1.584227 7.56873,-12.569578 11.14711,-14.350302 z"
         id="path118"
         sodipodi:nodetypes="zzzzzz"
         transform="matrix(2.0373865,-0.54698798,0.55511508,2.0075585,-388.14034,133.34247)" /><path
         style="fill:#01a33e;fill-opacity:1;stroke:#000000;stroke-width:1.5;stroke-linecap:butt;stroke-linejoin:miter;stroke-dasharray:none;stroke-opacity:1"
         d="m 200.32766,81.809534 c 0.0368,-2.338947 -6.66722,6.525241 -9.80177,8.776748 -3.13456,2.251507 -10.36,5.395023 -6.9189,5.50949 6.61502,0.729013 10.0658,-1.474606 13.6456,-3.907895 3.5798,-2.433289 3.03824,-8.039395 3.07507,-10.378343 z"
         id="path119"
         sodipodi:nodetypes="zzzzz"
         transform="matrix(2.0373865,-0.54698798,0.55511508,2.0075585,-388.14034,133.34247)" /></g><g
       id="g91"
       style="display:inline;fill:#eeefba;fill-opacity:1;stroke:#000000;stroke-width:1.5;stroke-dasharray:none;stroke-opacity:1"
       inkscape:label="snake_belly"><path
         style="fill:#eeefba;fill-opacity:1;stroke:#000000;stroke-width:1.5;stroke-linecap:butt;stroke-linejoin:miter;stroke-dasharray:none;stroke-opacity:1"
         d="m 219.99526,75.082831 c -0.0242,3.488316 -0.91702,11.715243 1.15314,11.147109 2.07016,-0.568134 10.90242,-1.641078 10.89086,-5.253236 -0.0116,-3.612158 0.10028,-8.071933 -0.64064,-9.865833 -0.74092,-1.7939 -11.37917,0.483644 -11.40336,3.97196 z"
         id="path30"
         sodipodi:nodetypes="zzzzz" /><path
         style="fill:#eeefba;fill-opacity:1;stroke:#000000;stroke-width:1.5;stroke-linecap:butt;stroke-linejoin:miter;stroke-dasharray:none;stroke-opacity:1"
         d="m 221.27653,91.162856 c 0.0394,3.388849 -0.55145,2.288707 -1.53753,6.15013 -0.98607,3.861424 6.5157,1.998976 9.54551,0.448447 3.02981,-1.550528 3.99588,-12.17739 1.53754,-10.954917 -2.45834,1.222473 -9.5849,0.967492 -9.54552,4.35634 z"
         id="path31"
         sodipodi:nodetypes="zzzzz" /><path
         style="fill:#eeefba;fill-opacity:1;stroke:#000000;stroke-width:1.5;stroke-linecap:butt;stroke-linejoin:miter;stroke-dasharray:none;stroke-opacity:1"
         d="m 217.75302,102.11777 c 0.6363,-0.90901 6.16192,0.93402 10.12208,-0.83283 3.96016,-1.766845 -9.68536,14.51971 -11.72368,12.87684 -2.03832,-1.64287 -5.11877,-8.80287 -3.52351,-8.90487 1.59526,-0.102 4.48881,-2.23013 5.12511,-3.13914 z"
         id="path32"
         sodipodi:nodetypes="zzzzz" /><path
         style="fill:#eeefba;fill-opacity:1;stroke:#000000;stroke-width:1.5;stroke-linecap:butt;stroke-linejoin:miter;stroke-dasharray:none;stroke-opacity:1"
         d="m 200.19953,107.17882 c 2.70854,-0.14032 6.67354,0.23383 8.58455,-0.32032 1.91101,-0.55414 2.39573,6.64298 4.10009,7.68766 1.70435,1.04468 -14.97434,6.02783 -12.87684,2.3063 2.0975,-3.72153 -2.51635,-9.53331 0.1922,-9.67364 z"
         id="path33"
         sodipodi:nodetypes="zzzzz" /><path
         style="fill:#eeefba;fill-opacity:1;stroke:#000000;stroke-width:1.5;stroke-linecap:butt;stroke-linejoin:miter;stroke-dasharray:none;stroke-opacity:1"
         d="m 195.90724,108.65229 c 1.8279,2.44372 2.36968,6.56303 0.76877,7.6236 -1.6009,1.06057 -8.34678,3.65973 -9.99396,2.17817 -1.64719,-1.48156 -5.71905,-7.30345 -3.97195,-8.32831 1.7471,-1.02486 11.36925,-3.91719 13.19714,-1.47346 z"
         id="path34"
         sodipodi:nodetypes="zzzzz" /><path
         style="fill:#eeefba;stroke:#000000;stroke-width:1.5;stroke-linecap:butt;stroke-linejoin:miter;stroke-opacity:1;stroke-dasharray:none;fill-opacity:1"
         d="m 176.56692,111.16203 c 3.6142,-0.51687 5.10668,4.90514 3.41841,7.79076 -1.68827,2.88562 -11.48175,-0.76657 -13.8443,1.95595 -2.36255,2.72252 -5.36228,-4.59608 -2.51651,-7.35983 2.84577,-2.76375 9.3282,-1.87002 12.9424,-2.38688 z"
         id="path26"
         sodipodi:nodetypes="zzzzz" /><path
         style="display:inline;fill:#eeefba;fill-opacity:1;stroke:#000000;stroke-width:1.5;stroke-linecap:butt;stroke-linejoin:miter;stroke-dasharray:none;stroke-opacity:1"
         d="m 76.470141,192.43432 c -1.017748,5.67167 4.99559,18.61035 5.962949,21.56435 0.967359,2.954 -3.635717,12.40329 -5.282117,10.43298 -1.6464,-1.9703 -13.38405,-22.18002 -10.743869,-28.39531 2.640181,-6.21529 11.080785,-9.27369 10.063037,-3.60202 z"
         id="path102"
         sodipodi:nodetypes="zzzzz" /><path
         style="display:inline;fill:#eeefba;fill-opacity:1;stroke:#000000;stroke-width:1.5;stroke-linecap:butt;stroke-linejoin:miter;stroke-dasharray:none;stroke-opacity:1"
         d="m 88.425564,213.45351 c 1.53844,-4.81325 31.921206,6.29419 35.152786,5.9796 3.23158,-0.31459 3.47667,7.77342 2.3556,10.60019 -1.12107,2.82677 -42.345118,-3.35425 -41.857184,-6.79499 0.487934,-3.44074 2.810358,-4.97155 4.348798,-9.7848 z"
         id="path104"
         sodipodi:nodetypes="zzzzz" /><path
         style="display:inline;fill:#eeefba;fill-opacity:1;stroke:#000000;stroke-width:1.5;stroke-linecap:butt;stroke-linejoin:miter;stroke-dasharray:none;stroke-opacity:1"
         d="m 130.80437,218.46116 c -2.65154,1.20841 -0.38052,6.0131 -1.07276,9.97888 -0.69224,3.96578 35.46737,0.10065 39.12474,-0.91888 3.65737,-1.01953 10.29801,-7.5523 6.8856,-9.7848 -3.41241,-2.2325 -42.28605,-0.48361 -44.93758,0.7248 z"
         id="path106"
         sodipodi:nodetypes="zzzzz" /><path
         style="display:inline;fill:#eeefba;fill-opacity:1;stroke:#000000;stroke-width:1.5;stroke-linecap:butt;stroke-linejoin:miter;stroke-dasharray:none;stroke-opacity:1"
         d="m 183.50623,217.32999 c -3.38289,-0.6076 -2.75509,7.57185 -5.50195,9.9167 -2.74686,2.34486 10.20463,2.0781 15.49149,-1.25929 5.28685,-3.33739 9.28469,-4.20957 10.97814,-9.29427 1.69345,-5.0847 4.20737,-14.17234 1.90747,-16.90467 -1.43002,-1.6989 -9.15868,-2.492 -10.26009,1.18012 -1.58604,5.28787 -10.92362,16.66522 -12.61506,16.36141 z"
         id="path107"
         sodipodi:nodetypes="szzzsss" /><path
         style="display:inline;fill:#eeefba;fill-opacity:1;stroke:#000000;stroke-width:1.5;stroke-linecap:butt;stroke-linejoin:miter;stroke-dasharray:none;stroke-opacity:1"
         d="m 56.987378,241.9019 c 5.679958,-1.62612 10.769087,-4.2653 15.764393,-4.53 4.995306,-0.2647 3.301371,0.94327 5.888995,2.4462 2.587625,1.50293 -0.966567,2.87044 -4.711197,3.624 -3.74463,0.75356 -14.59551,3.7315 -19.75079,3.8052 -5.15528,0.0737 -7.911428,1.07471 -10.056598,-0.8154 -2.14517,-1.89011 7.185239,-2.90388 12.865197,-4.53 z"
         id="path111"
         sodipodi:nodetypes="zzzzzzz" /><g
         id="g133"
         inkscape:label="hidden"
         style="display:none"><path
           style="fill:#eeefba;fill-opacity:1;stroke:#000000;stroke-width:1.5;stroke-linecap:butt;stroke-linejoin:miter;stroke-dasharray:none;stroke-opacity:1"
           d="m 158.12454,115.654 c 1.61147,2.19348 2.76232,6.30688 4.85934,8.23071 2.09702,1.92383 -3.01223,9.71283 -6.25523,8.49997 -3.243,-1.21286 -10.0798,1.8548 -10.8418,-1.88038 -0.76201,-3.73517 10.62622,-17.04378 12.23769,-14.8503 z"
           id="path27"
           sodipodi:nodetypes="zzzzz" /><path
           style="fill:#eeefba;fill-opacity:1;stroke:#000000;stroke-width:1.5;stroke-linecap:butt;stroke-linejoin:miter;stroke-dasharray:none;stroke-opacity:1"
           d="m 144.46543,134.61841 c 2.16153,-0.64647 9.29337,0.91914 12.01747,1.1036 2.7241,0.18446 -3.41351,12.96439 -5.78226,11.69315 -2.36875,-1.27124 -13.34922,-1.67945 -15.73068,-0.96997 -2.38147,0.70947 7.33394,-11.18031 9.49547,-11.82678 z"
           id="path91"
           sodipodi:nodetypes="zzzzz" /><path
           style="fill:#eeefba;fill-opacity:1;stroke:#000000;stroke-width:1.5;stroke-linecap:butt;stroke-linejoin:miter;stroke-dasharray:none;stroke-opacity:1"
           d="m 135.73372,149.71395 c 5.5493,1.02286 10.25843,-0.77029 12.58005,1.1041 2.32161,1.87439 -6.7993,12.94762 -11.89586,13.23219 -5.09657,0.28457 -17.58907,-1.47815 -16.556,-2.76126 1.03306,-1.2831 10.32251,-12.59788 15.87181,-11.57503 z"
           id="path115"
           sodipodi:nodetypes="zzzzz" /><path
           style="fill:#eeefba;fill-opacity:1;stroke:#000000;stroke-width:1.5;stroke-linecap:butt;stroke-linejoin:miter;stroke-dasharray:none;stroke-opacity:1"
           d="m 116.18073,164.9141 c 0.48974,0.007 10.89506,1.62049 16.54749,2.75324 5.65244,1.13276 -14.7264,12.56677 -18.31625,10.27975 -3.58984,-2.28701 -7.02588,-3.75836 -10.77423,-5.87986 -3.74836,-2.1215 12.05325,-7.15988 12.54299,-7.15313 z"
           id="path126"
           sodipodi:nodetypes="zzzzz" /><path
           style="fill:#eeefba;fill-opacity:1;stroke:#000000;stroke-width:1.5;stroke-linecap:butt;stroke-linejoin:miter;stroke-dasharray:none;stroke-opacity:1"
           d="m 93.563696,178.73738 c 1.600737,-1.89259 4.143463,-3.69627 6.542524,-4.88037 2.39906,-1.18409 8.2992,3.91891 10.9424,6.47246 2.6432,2.55354 -5.5448,3.57352 -8.4349,4.76374 -2.890105,1.19023 -10.650762,-4.46324 -9.050024,-6.35583 z"
           id="path127"
           sodipodi:nodetypes="zzzzz" /><path
           style="fill:#eeefba;fill-opacity:1;stroke:#000000;stroke-width:1.5;stroke-linecap:butt;stroke-linejoin:miter;stroke-dasharray:none;stroke-opacity:1"
           d="m 79.333514,186.60371 c 1.655995,-2.1259 7.297548,-5.82978 10.035,-5.48146 2.737452,0.34832 4.879784,4.92462 7.069546,5.84232 2.189762,0.91771 -9.861747,4.40565 -13.496449,5.62812 -3.634702,1.22246 -5.264091,-3.86307 -3.608097,-5.98898 z"
           id="path128"
           sodipodi:nodetypes="zzzzz" /><path
           style="display:inline;fill:#eeefba;fill-opacity:1;stroke:#000000;stroke-width:1.5;stroke-linecap:butt;stroke-linejoin:miter;stroke-dasharray:none;stroke-opacity:1"
           d="m 192.92444,191.07229 c 1.17314,0.3871 2.01092,6.89561 1.77867,7.41799 -0.23225,0.52239 -0.82679,3.62738 -2.33207,4.09116 -1.50528,0.46377 -7.76298,-8.81366 -6.84914,-9.49194 0.91383,-0.67827 6.22939,-2.40431 7.40254,-2.01721 z"
           id="path138"
           sodipodi:nodetypes="zzzzz" /><path
           style="display:inline;fill:#eeefba;fill-opacity:1;stroke:#000000;stroke-width:1.5;stroke-linecap:butt;stroke-linejoin:miter;stroke-dasharray:none;stroke-opacity:1"
           d="m 173.34823,195.31168 c 2.34212,-0.66303 8.57679,-1.96172 9.45425,-1.73114 0.87745,0.23059 3.06445,6.03997 4.00639,6.90578 0.94195,0.8658 -14.65186,4.93553 -14.71772,3.5387 -0.0659,-1.39683 -2.75855,-4.755 -3.81775,-5.94544 -1.05921,-1.19044 2.73272,-2.10488 5.07483,-2.7679 z"
           id="path139"
           sodipodi:nodetypes="zzzzzz" /><path
           style="display:inline;fill:#eeefba;fill-opacity:1;stroke:#000000;stroke-width:1.5;stroke-linecap:butt;stroke-linejoin:miter;stroke-dasharray:none;stroke-opacity:1"
           d="m 154.78143,205.45817 c 0.0456,3.15768 2.20175,2.07742 4.77066,2.14892 2.56891,0.0715 10.52925,-2.24978 10.24009,-3.31363 -0.28915,-1.06386 -2.75063,-4.20659 -3.68345,-5.23285 -0.93283,-1.02627 -11.37287,3.23987 -11.3273,6.39756 z"
           id="path140"
           sodipodi:nodetypes="zzzzz" /><path
           style="display:inline;fill:#eeefba;fill-opacity:1;stroke:#000000;stroke-width:1.5;stroke-linecap:butt;stroke-linejoin:miter;stroke-dasharray:none;stroke-opacity:1"
           d="m 153.20018,210.62732 c -1.55862,1.36012 -11.76119,4.8109 -11.37242,3.29841 0.38878,-1.5125 9.13712,-7.72464 10.22718,-6.51471 1.09007,1.20992 2.45383,2.07436 1.14524,3.2163 z"
           id="path141"
           sodipodi:nodetypes="zzzz" /></g></g><g
       id="g98"
       style="display:inline;stroke:#000000;stroke-width:1.5;stroke-dasharray:none;stroke-opacity:1"
       inkscape:label="snake_back"><path
         style="fill:#01a33e;fill-opacity:1;stroke:#000000;stroke-width:1.5;stroke-linecap:butt;stroke-linejoin:miter;stroke-dasharray:none;stroke-opacity:1"
         d="m 236.3956,42.282139 c -0.72253,3.49759 1.00952,6.255428 0.64064,8.456429 -0.36888,2.201001 -4.54476,2.827862 -4.16415,7.495469 0.38061,4.667608 -2.6296,6.198969 -2.62662,8.64862 0.41353,1.727548 2.8963,1.103618 3.90789,2.626618 1.01159,1.523001 0.27787,7.128001 1.08909,5.82981 0.81122,-1.298191 8.12274,-6.35244 11.91588,-5.765746 3.79314,0.586694 1.47426,-8.921931 -0.64064,-13.453408 -2.1149,-4.531477 -9.39957,-17.335382 -10.12209,-13.837792 z"
         id="path92"
         sodipodi:nodetypes="zzzzzzzzz" /><path
         style="fill:#01a33e;fill-opacity:1;stroke:#000000;stroke-width:1.5;stroke-linecap:butt;stroke-linejoin:miter;stroke-dasharray:none;stroke-opacity:1"
         d="m 235.93616,79.92326 c 1.30954,-3.328225 9.22117,-5.103265 13.25023,-7.25554 4.02906,-2.152276 -0.64373,20.735425 -2.96626,23.275273 -2.32253,2.539848 -12.31549,1.388264 -11.86814,-1.00681 0.44735,-2.395075 0.27463,-11.684699 1.58417,-15.012923 z"
         id="path93"
         sodipodi:nodetypes="zzzzz" /><path
         style="fill:#01a33e;fill-opacity:1;stroke:#000000;stroke-width:1.5;stroke-linecap:butt;stroke-linejoin:miter;stroke-dasharray:none;stroke-opacity:1"
         d="m 234.46081,99.336492 c 2.43442,0.896898 9.82447,0.403986 10.6437,2.412448 0.55566,1.36229 -6.84275,22.25547 -9.81276,22.00687 -2.97001,-0.2486 -9.12771,-10.29824 -8.88367,-12.59781 0.24404,-2.29957 5.6183,-12.718402 8.05273,-11.821508 z"
         id="path94"
         sodipodi:nodetypes="zzzzz" /><path
         style="fill:#01a33e;fill-opacity:1;stroke:#000000;stroke-width:1.5;stroke-linecap:butt;stroke-linejoin:miter;stroke-dasharray:none;stroke-opacity:1"
         d="m 224.25456,113.71788 c -0.11695,1.61181 6.17181,10.70556 7.71875,12.55652 1.54694,1.85096 -12.54035,14.27987 -13.26577,10.62816 -0.72542,-3.65171 -10.42327,-16.97264 -7.6024,-17.53418 2.82087,-0.56154 13.26637,-7.26231 13.14942,-5.6505 z"
         id="path95"
         sodipodi:nodetypes="zzzzz" /><path
         style="fill:#01a33e;fill-opacity:1;stroke:#000000;stroke-width:1.5;stroke-linecap:butt;stroke-linejoin:miter;stroke-dasharray:none;stroke-opacity:1"
         d="m 197.95729,121.08067 c 2.68999,0.3919 9.70532,-1.96382 10.50647,0.51252 0.80116,2.47634 7.76515,14.80306 7.6236,16.59254 -0.14156,1.78947 -15.93753,7.79741 -16.72067,6.66263 -0.78313,-1.13478 -4.09939,-24.15959 -1.4094,-23.76769 z"
         id="path96"
         sodipodi:nodetypes="zzzzz" /><path
         style="fill:#01a33e;fill-opacity:1;stroke:#000000;stroke-width:1.5;stroke-linecap:butt;stroke-linejoin:miter;stroke-dasharray:none;stroke-opacity:1"
         d="m 188.47584,122.49008 c 0.96599,-1.17263 3.84524,-0.7088 5.12511,-0.76877 1.27987,-0.06 -0.45064,21.69563 2.49848,23.95988 2.94913,2.26425 -9.74294,6.72216 -11.72367,5.76575 -0.49519,-0.2391 -3.2227,-6.05136 -1.58007,-9.07809 1.45568,-2.68224 3.57627,-4.7088 4.2032,-6.16897 1.32026,-3.07498 0.98913,-13.11763 1.47695,-13.7098 z"
         id="path97"
         sodipodi:nodetypes="szzssss" /><path
         style="fill:#01a33e;fill-opacity:1;stroke:#000000;stroke-width:1.5;stroke-linecap:butt;stroke-linejoin:miter;stroke-dasharray:none;stroke-opacity:1"
         d="m 170.53796,121.40099 c -1.40404,0.2708 8.6453,18.65579 11.46743,16.59254 2.82214,-2.06326 3.76225,-11.80726 3.45945,-13.19716 -0.3028,-1.3899 -13.52284,-3.66618 -14.92688,-3.39538 z"
         id="path98"
         sodipodi:nodetypes="zzzz" /><path
         style="display:inline;fill:#01a33e;fill-opacity:1;stroke:#000000;stroke-width:1.5;stroke-linecap:butt;stroke-linejoin:miter;stroke-dasharray:none;stroke-opacity:1"
         d="m 61.479846,201.06597 c -0.862896,-2.27114 -10.457755,5.06502 -9.784797,12.68399 0.672959,7.61897 8.999892,14.82498 12.19724,15.79926 3.197349,0.97429 11.620879,1.34852 9.528542,-2.38292 -2.092337,-3.73143 -11.078089,-23.82919 -11.940985,-26.10033 z"
         id="path103"
         sodipodi:nodetypes="zzzzz" /><path
         style="display:inline;fill:#01a33e;fill-opacity:1;stroke:#000000;stroke-width:1.5;stroke-linecap:butt;stroke-linejoin:miter;stroke-dasharray:none;stroke-opacity:1"
         d="m 73.476569,232.93251 c -0.868366,-2.44483 7.43487,-3.12018 8.275687,-4.85754 0.840816,-1.73736 31.406634,6.44547 37.839694,5.21994 6.43307,-1.22554 7.26512,4.62374 2.718,9.69419 -4.54712,5.07045 -47.965014,-7.61176 -48.833381,-10.05659 z"
         id="path105"
         sodipodi:nodetypes="zzzzz" /><path
         style="display:inline;fill:#01a33e;fill-opacity:1;stroke:#000000;stroke-width:1.5;stroke-linecap:butt;stroke-linejoin:miter;stroke-dasharray:none;stroke-opacity:1"
         d="m 129.31457,235.30743 c -1.86642,2.51279 -2.33581,9.84928 2.26922,10.66347 4.60503,0.81418 36.73371,3.86681 44.16947,0.25625 7.43576,-3.61055 5.57078,-17.4979 -0.87556,-14.24727 -6.44635,3.25063 -43.69671,0.81475 -45.56313,3.32755 z"
         id="path108"
         sodipodi:nodetypes="zzzzz" /><path
         style="display:inline;fill:#01a33e;fill-opacity:1;stroke:#000000;stroke-width:1.5;stroke-linecap:butt;stroke-linejoin:miter;stroke-dasharray:none;stroke-opacity:1"
         d="m 184.56766,242.04668 c 0.60534,-4.94217 1.64032,-9.69476 3.36775,-10.9637 1.72743,-1.26893 9.45834,-2.54538 13.43078,-4.88707 3.97244,-2.34169 6.73054,-9.82712 9.72261,-9.16237 2.99208,0.66476 8.96475,-1.73497 11.19044,3.19943 2.22569,4.93439 -7.8432,13.13863 -14.60969,17.13893 -6.76649,4.0003 -23.70722,9.61694 -23.10189,4.67478 z"
         id="path109"
         sodipodi:nodetypes="zzzzzzz" /><path
         style="display:inline;fill:#01a33e;fill-opacity:1;stroke:#000000;stroke-width:1.5;stroke-linecap:butt;stroke-linejoin:miter;stroke-dasharray:none;stroke-opacity:1"
         d="m 209.40493,198.72325 c 1.95431,4.32265 0.29645,14.73026 1.74605,14.73026 1.4496,0 8.24519,-0.72901 10.57555,1.66189 2.33037,2.3909 -0.007,-26.90984 -4.00838,-26.49916 -4.00129,0.41068 -10.26753,5.78435 -8.31322,10.10701 z"
         id="path110"
         sodipodi:nodetypes="zzzzz" /><path
         style="display:inline;fill:#01a33e;fill-opacity:1;stroke:#000000;stroke-width:1.5;stroke-linecap:butt;stroke-linejoin:miter;stroke-dasharray:none;stroke-opacity:1"
         d="m 17.666993,248.5157 c -20.5003653,-10.00778 11.34363,-2.04013 15.673793,-1.359 4.330163,0.68113 13.147121,1.37271 11.777995,4.1676 -0.500664,1.02204 -2.994312,2.66622 -4.637853,2.89308 -6.767099,0.93408 -21.259358,-4.94277 -22.813935,-5.70168 z"
         id="path112"
         sodipodi:nodetypes="szsss" /><path
         style="display:inline;fill:#01a33e;fill-opacity:1;stroke:#000000;stroke-width:1.5;stroke-linecap:butt;stroke-linejoin:miter;stroke-dasharray:none;stroke-opacity:1"
         d="m 53.659049,250.33037 c -2.695679,0.26194 -4.191643,0.18171 -6.351105,3.71004 -2.159462,3.52834 11.538522,1.55726 18.136317,0.61676 6.597795,-0.9405 18.656706,-3.48382 16.796637,-4.15282 -1.860069,-0.669 -3.146337,-6.02107 -4.112642,-5.15965 -0.966305,0.86142 -21.773528,4.72373 -24.469207,4.98567 z"
         id="path113"
         sodipodi:nodetypes="zzzzzz" /><path
         style="display:inline;fill:#01a33e;fill-opacity:1;stroke:#000000;stroke-width:1.5;stroke-linecap:butt;stroke-linejoin:miter;stroke-dasharray:none;stroke-opacity:1"
         d="m 81.578276,243.27644 c 0.131859,1.38671 0.779311,4.0649 4.6911,5.17975 3.91179,1.11484 11.55907,-4.04849 9.738945,-4.68545 -1.820126,-0.63695 -9.564781,-3.56593 -10.509596,-3.96441 -0.944816,-0.39849 -4.052308,2.08341 -3.920449,3.47011 z"
         id="path114"
         sodipodi:nodetypes="zzzzz" /><path
         style="display:inline;fill:#01a33e;fill-opacity:1;stroke:#000000;stroke-width:1.5;stroke-linecap:butt;stroke-linejoin:miter;stroke-dasharray:none;stroke-opacity:1"
         d="m 61.223591,194.33048 c -3.912869,2.19508 -5.788395,6.14757 -9.157034,6.23963 -3.368639,0.0921 -1.351047,-10.52977 1.118289,-14.78711 1.027275,-4.78631 23.308528,-18.65775 22.472561,-13.92508 -0.835966,4.73267 -0.798446,12.52078 -4.166035,13.78784 -3.367589,1.26705 -6.354912,6.48964 -10.267781,8.68472 z"
         id="path116"
         sodipodi:nodetypes="zzzzzz" /><path
         style="display:inline;fill:#01a33e;fill-opacity:1;stroke:#000000;stroke-width:1.5;stroke-linecap:butt;stroke-linejoin:miter;stroke-dasharray:none;stroke-opacity:1"
         d="m 196.03538,185.01639 c 0.11882,2.68186 -0.43223,12.57975 1.92191,11.40337 2.02744,-1.01312 8.29939,0.87197 9.09706,-3.07506 0.79768,-3.94704 5.0165,-8.09551 7.8158,-7.94393 2.7993,0.15159 -2.99669,-9.09577 -6.79077,-10.63459 -3.79408,-1.53882 -12.34278,-0.60594 -14.3503,1.53753 -2.00752,2.14347 2.18748,6.03083 2.3063,8.71268 z"
         id="path117"
         sodipodi:nodetypes="zszzzzz" /><g
         id="g134"
         inkscape:label="hidden"
         style="display:none;stroke:#000000;stroke-width:1.5;stroke-dasharray:none;stroke-opacity:1"><path
           style="fill:#01a33e;fill-opacity:1;stroke:#000000;stroke-width:1.5;stroke-linecap:butt;stroke-linejoin:miter;stroke-dasharray:none;stroke-opacity:1"
           d="m 167.00615,126.19952 c 1.02049,0.27396 7.28515,10.34536 9.16689,11.20646 1.88175,0.8611 -16.0109,2.50638 -14.72199,-0.83252 0.93817,-2.4303 4.53461,-10.6479 5.5551,-10.37394 z"
           id="path129"
           sodipodi:nodetypes="zzzz" /><path
           style="fill:#01a33e;fill-opacity:1;stroke:#000000;stroke-width:1.5;stroke-linecap:butt;stroke-linejoin:miter;stroke-dasharray:none;stroke-opacity:1"
           d="m 159.17206,145.10529 c 0.20003,2.36715 21.68052,7.46457 20.97386,6.47564 -0.70665,-0.98893 1.27326,-10.77731 -1.8768,-10.15929 -3.15006,0.61802 -14.92926,-0.22848 -16.02586,-0.34444 -1.0966,-0.11597 -3.27124,1.66094 -3.0712,4.02809 z"
           id="path130"
           sodipodi:nodetypes="zzzzz" /><path
           style="fill:#01a33e;fill-opacity:1;stroke:#000000;stroke-width:1.5;stroke-linecap:butt;stroke-linejoin:miter;stroke-dasharray:none;stroke-opacity:1"
           d="m 80.494933,168.71807 c -2.51544,2.73772 -1.069082,7.30128 -1.216534,11.45152 -0.147451,4.15023 18.460614,-7.66993 23.240651,-11.75786 4.78003,-4.08792 1.20913,-6.81065 0.36193,-8.59721 -0.8472,-1.78656 -8.508406,0.69727 -12.029916,2.38581 -3.521509,1.68853 -7.840691,3.78002 -10.356131,6.51774 z"
           id="path131"
           sodipodi:nodetypes="zzzzzz" /><path
           style="fill:#01a33e;fill-opacity:1;stroke:#000000;stroke-width:1.5;stroke-linecap:butt;stroke-linejoin:miter;stroke-dasharray:none;stroke-opacity:1"
           d="m 108.18111,163.72745 c 2.03357,3.34926 11.21648,-6.5047 14.44586,-9.50683 2.2448,-1.97896 9.49235,-5.58455 0.90462,-11.51426 -1.90442,-1.31497 -10.54799,8.24336 -16.17215,11.38494 -5.15057,2.87705 -0.51468,7.43521 0.82167,9.63615 z"
           id="path132"
           sodipodi:nodetypes="szsss" /><path
           style="fill:#01a33e;fill-opacity:1;stroke:#000000;stroke-width:1.5;stroke-linecap:butt;stroke-linejoin:miter;stroke-dasharray:none;stroke-opacity:1"
           d="m 154.99031,148.71836 c 1.14195,-1.75394 12.75387,3.51771 16.94648,5.77965 4.19261,2.26194 -18.39797,7.40642 -23.28935,7.2141 -4.89139,-0.19231 5.20091,-11.23981 6.34287,-12.99375 z"
           id="path133"
           sodipodi:nodetypes="zzzz" /><path
           style="display:inline;fill:#01a33e;fill-opacity:1;stroke:#000000;stroke-width:1.5;stroke-linecap:butt;stroke-linejoin:miter;stroke-dasharray:none;stroke-opacity:1"
           d="m 125.8709,140.43221 c 1.32934,2.11336 3.42738,5.76498 5.34632,4.51349 1.91894,-1.25148 3.47648,-4.99107 5.62861,-7.13461 2.15214,-2.14354 4.6478,-3.27357 5.17616,-4.83432 0.52836,-1.56074 3.45052,-7.6392 -0.0405,-4.73572 -3.49106,2.90348 -17.4399,10.07779 -16.11055,12.19116 z"
           id="path134"
           sodipodi:nodetypes="zzzzzz" /><path
           style="display:inline;fill:#01a33e;fill-opacity:1;stroke:#000000;stroke-width:1.5;stroke-linecap:butt;stroke-linejoin:miter;stroke-dasharray:none;stroke-opacity:1"
           d="m 189.2896,176.95596 c -0.81013,-2.73872 -16.68297,1.29972 -19.47092,5.87771 -2.78795,4.57799 3.16735,9.33464 4.30167,9.59498 1.13433,0.26034 17.97019,-3.19201 18.64515,-5.25141 0.67497,-2.0594 -2.66577,-7.48256 -3.4759,-10.22128 z"
           id="path135"
           sodipodi:nodetypes="zzzzz" /><path
           style="display:inline;fill:#01a33e;fill-opacity:1;stroke:#000000;stroke-width:1.5;stroke-linecap:butt;stroke-linejoin:miter;stroke-dasharray:none;stroke-opacity:1"
           d="m 166.2391,185.16064 c -0.47256,3.24817 4.38234,7.43675 2.75956,8.77768 -1.62278,1.34093 -13.45455,7.21036 -15.55097,8.33754 -2.09642,1.12718 -11.20324,-3.9558 -8.36239,-7.12533 2.84084,-3.16954 21.62637,-13.23806 21.1538,-9.98989 z"
           id="path136"
           sodipodi:nodetypes="zzzzz" /><path
           style="display:inline;fill:#01a33e;fill-opacity:1;stroke:#000000;stroke-width:1.5;stroke-linecap:butt;stroke-linejoin:miter;stroke-dasharray:none;stroke-opacity:1"
           d="m 142.07526,199.46737 c -3.57307,-2.99272 -17.6181,11.04389 -20.27119,14.26107 -2.65308,3.21718 10.26514,3.11864 13.40781,0.96564 3.14266,-2.15299 9.51018,-6.06757 12.27533,-8.51176 2.76516,-2.44418 -1.83888,-3.72223 -5.41195,-6.71495 z"
           id="path137"
           sodipodi:nodetypes="zzzzz" /></g></g></g></svg>
